<svg xmlns="http://www.w3.org/2000/svg" xmlns:xlink="http://www.w3.org/1999/xlink" viewBox="0,0,256,256" width="90px" height="90px" fill-rule="nonzero"><g transform=""><g fill="none" fill-rule="nonzero" stroke="#000000" stroke-width="8.53333" stroke-linecap="butt" stroke-linejoin="miter" stroke-miterlimit="10" stroke-dasharray="" stroke-dashoffset="0" font-family="none" font-weight="none" font-size="none" text-anchor="none" style="mix-blend-mode: normal"><path d="M67.98086,250.48804c-34.50062,0 -62.4689,-27.96828 -62.4689,-62.4689v-120.03828c0,-34.50062 27.96828,-62.4689 62.4689,-62.4689h120.03828c34.50062,0 62.4689,27.96828 62.4689,62.4689v120.03828c0,34.50062 -27.96828,62.4689 -62.4689,62.4689z" id="shape"></path></g><g fill="#000000" fill-rule="nonzero" stroke="none" stroke-width="1" stroke-linecap="butt" stroke-linejoin="miter" stroke-miterlimit="10" stroke-dasharray="" stroke-dashoffset="0" font-family="none" font-weight="none" font-size="none" text-anchor="none" style="mix-blend-mode: normal"><g transform="translate(308.02769,146.92167) rotate(141) scale(8.53333,8.53333) skewX(0)"><path d="M15,2.29883l-11,6.34961v12.70312l3.14258,1.8125v-12.69922l7.85742,-4.53711l7.85742,4.53711v12.69922l3.14258,-1.8125v-12.70312zM13.42969,10.05469l-3.14453,1.81445v13.11133l4.71484,2.7207l4.71484,-2.7207v-13.11133l-3.14453,-1.81445v13.10937l-1.57031,0.9082l-1.57031,-0.9082z"></path></g></g></g></svg>